<svg width="125" height="33" viewBox="0 0 125 33" fill="none" xmlns="http://www.w3.org/2000/svg">
<g clip-path="url(#clip0_1_253)">
<path d="M16.4298 0.570312C4.04242 0.570312 0.503174 4.11031 0.503174 16.5003C0.503174 28.8903 4.05127 32.4303 16.4298 32.4303C28.8083 32.4303 32.3564 28.8903 32.3564 16.5003C32.3564 4.11031 28.8083 0.570312 16.4298 0.570312Z" fill="#00AA45"/>
<path fill-rule="evenodd" clip-rule="evenodd" d="M4.62563 4.69365C2.54377 6.77596 1.64079 10.3291 1.64079 16.5003C1.64079 22.671 2.54581 26.2243 4.62877 28.3068C6.71188 30.3894 10.2646 31.2925 16.4298 31.2925C22.595 31.2925 26.1477 30.3894 28.2308 28.3068C30.3137 26.2243 31.2188 22.671 31.2188 16.5003C31.2188 10.3297 30.3137 6.7763 28.2308 4.69383C26.1477 2.61125 22.595 1.70817 16.4298 1.70817C10.2599 1.70817 6.7075 2.61134 4.62563 4.69365ZM0.503174 16.5003C0.503174 4.11031 4.04242 0.570312 16.4298 0.570312C28.8083 0.570312 32.3564 4.11031 32.3564 16.5003C32.3564 28.8903 28.8083 32.4303 16.4298 32.4303C4.05127 32.4303 0.503174 28.8903 0.503174 16.5003Z" fill="#219653"/>
<path fill-rule="evenodd" clip-rule="evenodd" d="M15.9047 7.96637H9.03528V27.3099H14.3733V23.2642H15.9047C20.2581 23.2642 23.8243 19.8597 23.8243 15.6153C23.8243 11.3708 20.2581 7.96637 15.9047 7.96637ZM14.3733 18.0807V13.1499H15.9047C17.3509 13.1499 18.4862 14.2737 18.4862 15.6153C18.4862 16.9568 17.3509 18.0807 15.9047 18.0807H14.3733Z" fill="#24292E"/>
<path fill-rule="evenodd" clip-rule="evenodd" d="M10.7417 7.39746H17.0423C21.102 7.39746 24.3931 10.5673 24.3931 14.4774C24.3931 18.3876 21.102 21.5575 17.0423 21.5575H14.9421V25.6032H10.7417V7.39746ZM14.9421 17.5118H17.0423C18.7822 17.5118 20.1927 16.1533 20.1927 14.4774C20.1927 12.8017 18.7822 11.4432 17.0423 11.4432H14.9421V17.5118Z" fill="white"/>
<path fill-rule="evenodd" clip-rule="evenodd" d="M10.1729 6.82855H17.0423C21.3957 6.82855 24.9618 10.233 24.9618 14.4775C24.9618 18.7219 21.3957 22.1264 17.0423 22.1264H15.5109V26.1721H10.1729V6.82855ZM11.3105 7.96641V25.0343H14.3733V20.9886H17.0423C20.8083 20.9886 23.8242 18.0534 23.8242 14.4775C23.8242 10.9016 20.8083 7.96641 17.0423 7.96641H11.3105ZM14.3733 10.8743H17.0423C19.0759 10.8743 20.7614 12.4674 20.7614 14.4775C20.7614 16.4875 19.0759 18.0807 17.0423 18.0807H14.3733V10.8743ZM15.5109 12.0121V16.9429H17.0423C18.4885 16.9429 19.6238 15.819 19.6238 14.4775C19.6238 13.1359 18.4885 12.0121 17.0423 12.0121H15.5109Z" fill="#24292E"/>
<path d="M54.0373 14.5858C54.0373 15.6293 53.7685 16.5324 53.2308 17.295C52.7011 18.0576 51.9467 18.6475 50.9676 19.065C49.9965 19.4824 48.8488 19.6911 47.5247 19.6911C46.6418 19.6911 45.8352 19.5988 45.1049 19.4142C44.3746 19.2296 43.7366 18.9686 43.1909 18.6315L43.3594 17.5599C43.6483 17.7606 43.9613 17.9292 44.2984 18.0656C44.6355 18.1941 44.9926 18.2944 45.3698 18.3666C45.747 18.4308 46.1402 18.4629 46.5495 18.4629C47.2879 18.4629 47.946 18.3105 48.5238 18.0054C49.1016 17.7003 49.5551 17.2508 49.8841 16.6568C50.2132 16.0628 50.3777 15.3404 50.3777 14.4895C50.3777 13.5022 50.1811 12.6472 49.7878 11.9248C49.4026 11.2023 48.8569 10.6404 48.1506 10.2391C47.4444 9.83769 46.6138 9.63703 45.6587 9.63703H44.7077V23.2913C44.7077 23.4679 44.7558 23.6204 44.8522 23.7488C44.9485 23.8693 45.1009 23.9455 45.3096 23.9776L46.357 24.1221C46.5576 24.1623 46.702 24.2305 46.7903 24.3268C46.8786 24.4231 46.9227 24.5636 46.9227 24.7482C46.9227 24.9168 46.8625 25.0533 46.7421 25.1576C46.6298 25.2539 46.4492 25.3021 46.2004 25.3021H39.9165C39.6677 25.3021 39.4831 25.2539 39.3627 25.1576C39.2423 25.0533 39.1821 24.9168 39.1821 24.7482C39.1821 24.4432 39.3507 24.2385 39.6877 24.1342L40.386 23.9776C40.5786 23.9215 40.723 23.8371 40.8193 23.7248C40.9236 23.6124 40.9758 23.4679 40.9758 23.2913V10.4558C40.9758 10.2792 40.9236 10.1347 40.8193 10.0224C40.723 9.90994 40.5786 9.82568 40.386 9.76947L39.6877 9.61296C39.3507 9.50862 39.1821 9.30392 39.1821 8.99886C39.1821 8.82226 39.2423 8.68583 39.3627 8.58946C39.4831 8.49314 39.6677 8.44501 39.9165 8.44501H45.755C47.5046 8.44501 48.9973 8.7099 50.2333 9.23969C51.4692 9.76145 52.4122 10.4879 53.0622 11.4191C53.7123 12.3422 54.0373 13.3978 54.0373 14.5858Z" fill="#0D0D0D"/>
<path d="M65.6623 18.186C65.6623 18.6115 65.5417 18.9406 65.3011 19.1734C65.0599 19.3982 64.7073 19.5105 64.2414 19.5105H56.7297V18.5954H61.6533C62.0629 18.5954 62.2671 18.4108 62.2671 18.0415C62.2671 16.982 62.0748 16.1792 61.6892 15.6334C61.3041 15.0795 60.7865 14.8026 60.1363 14.8026C59.6386 14.8026 59.1972 14.955 58.8122 15.2601C58.4271 15.5652 58.1262 16.0026 57.9095 16.5726C57.6927 17.1344 57.5847 17.8168 57.5847 18.6195C57.5847 20.1688 57.9453 21.3327 58.6677 22.1113C59.398 22.89 60.369 23.2793 61.5811 23.2793C62.2876 23.2793 62.9053 23.1388 63.4349 22.8579C63.9729 22.5769 64.3899 22.1755 64.6868 21.6538C64.8313 21.4932 64.9439 21.3849 65.0241 21.3287C65.1123 21.2725 65.2004 21.2444 65.2886 21.2444C65.4171 21.2444 65.5093 21.3046 65.5656 21.425C65.6219 21.5374 65.6498 21.6739 65.6498 21.8344C65.6179 22.5087 65.3773 23.1348 64.928 23.7127C64.478 24.2827 63.8723 24.7402 63.1101 25.0854C62.3473 25.4306 61.4725 25.6032 60.4856 25.6032C59.3218 25.6032 58.2906 25.3664 57.3918 24.8928C56.4929 24.4111 55.7867 23.7408 55.273 22.8819C54.7674 22.015 54.5146 21.0036 54.5146 19.8477C54.5146 18.6356 54.7554 17.5599 55.2369 16.6207C55.7265 15.6815 56.4247 14.947 57.3316 14.4172C58.2382 13.8875 59.3218 13.6226 60.5817 13.6226C61.6573 13.6226 62.572 13.8192 63.3268 14.2125C64.089 14.5979 64.6669 15.1357 65.0599 15.826C65.4615 16.5083 65.6623 17.295 65.6623 18.186Z" fill="#0D0D0D"/>
<path d="M78.018 18.186C78.018 18.6115 77.898 18.9406 77.6574 19.1734C77.4162 19.3982 77.063 19.5105 76.5977 19.5105H69.086V18.5954H74.0096C74.4186 18.5954 74.6234 18.4108 74.6234 18.0415C74.6234 16.982 74.4311 16.1792 74.0455 15.6334C73.6604 15.0795 73.1428 14.8026 72.4926 14.8026C71.9949 14.8026 71.5535 14.955 71.1684 15.2601C70.7834 15.5652 70.4825 16.0026 70.2657 16.5726C70.049 17.1344 69.9404 17.8168 69.9404 18.6195C69.9404 20.1688 70.3016 21.3327 71.024 22.1113C71.7543 22.89 72.7253 23.2793 73.9374 23.2793C74.6433 23.2793 75.2616 23.1388 75.7911 22.8579C76.3286 22.5769 76.7462 22.1755 77.0431 21.6538C77.1875 21.4932 77.3002 21.3849 77.3804 21.3287C77.4685 21.2725 77.5567 21.2444 77.6449 21.2444C77.7734 21.2444 77.8656 21.3046 77.9219 21.425C77.9782 21.5374 78.0061 21.6739 78.0061 21.8344C77.9742 22.5087 77.7336 23.1348 77.2837 23.7127C76.8343 24.2827 76.2285 24.7402 75.4663 25.0854C74.7036 25.4306 73.8287 25.6032 72.8419 25.6032C71.6781 25.6032 70.6468 25.3664 69.7481 24.8928C68.8494 24.4111 68.1429 23.7408 67.6293 22.8819C67.1236 22.015 66.8711 21.0036 66.8711 19.8477C66.8711 18.6356 67.1117 17.5599 67.5929 16.6207C68.0827 15.6815 68.7811 14.947 69.6878 14.4172C70.5945 13.8875 71.6781 13.6226 72.938 13.6226C74.0136 13.6226 74.9283 13.8192 75.6831 14.2125C76.4453 14.5979 77.0232 15.1357 77.4162 15.826C77.8178 16.5083 78.018 17.295 78.018 18.186Z" fill="#0D0D0D"/>
<path d="M83.6327 18.9205C83.6327 17.7566 83.7977 16.7813 84.1264 15.9946C84.4558 15.2079 84.8892 14.618 85.4267 14.2246C85.9643 13.8232 86.5422 13.6226 87.1605 13.6226C87.9227 13.6226 88.5125 13.8393 88.93 14.2728C89.347 14.7063 89.5557 15.3283 89.5557 16.1391C89.5557 16.8615 89.4073 17.3993 89.1103 17.7526C88.8134 18.1058 88.4283 18.2824 87.9545 18.2824C87.4733 18.2824 87.1081 18.1539 86.859 17.897C86.6104 17.6402 86.4859 17.283 86.4859 16.8254V16.3919C86.4779 16.1351 86.4176 15.9464 86.3055 15.826C86.1929 15.6976 86.0086 15.6334 85.7515 15.6334C85.4711 15.6334 85.1981 15.7498 84.933 15.9825C84.6765 16.2153 84.4638 16.5685 84.2948 17.0422C84.1344 17.5157 84.0542 18.1218 84.0542 18.8603L83.6327 18.9205ZM83.862 14.4534L84.0542 17.1866V23.3636C84.0542 23.5964 84.0986 23.7689 84.1867 23.8813C84.2829 23.9857 84.4518 24.0579 84.6924 24.0981L85.7276 24.2546C85.9125 24.2867 86.0484 24.3469 86.1372 24.4352C86.2333 24.5235 86.2817 24.6439 86.2817 24.7964C86.2817 24.957 86.2214 25.0814 86.1008 25.1697C85.9887 25.258 85.8238 25.3022 85.6071 25.3022H79.9855C79.7609 25.3022 79.5959 25.258 79.4918 25.1697C79.3877 25.0814 79.3354 24.961 79.3354 24.8085C79.3354 24.688 79.3712 24.5877 79.4435 24.5075C79.5157 24.4192 79.6283 24.3469 79.7808 24.2907L80.25 24.1703C80.3945 24.1221 80.4992 24.0419 80.5634 23.9295C80.6357 23.8091 80.6715 23.6244 80.6715 23.3756V16.5003C80.6715 16.2916 80.6397 16.1431 80.5754 16.0548C80.5191 15.9665 80.4229 15.9103 80.2864 15.8862L79.6482 15.8381C79.5037 15.8059 79.3997 15.7538 79.3354 15.6815C79.2711 15.6093 79.2393 15.517 79.2393 15.4046C79.2393 15.2681 79.2791 15.1597 79.3593 15.0795C79.4395 14.9992 79.584 14.919 79.7927 14.8387L81.9838 14.044C82.3768 13.8915 82.6658 13.7951 82.8506 13.755C83.0349 13.7068 83.1794 13.6828 83.284 13.6828C83.4604 13.6828 83.5929 13.7429 83.6811 13.8634C83.7692 13.9758 83.8295 14.1724 83.862 14.4534Z" fill="#0D0D0D"/>
<path d="M95.1055 8.16807V23.3756C95.1055 23.6244 95.1379 23.8091 95.2022 23.9295C95.2744 24.0419 95.3825 24.1221 95.527 24.1703L95.9843 24.2907C96.1367 24.3389 96.2493 24.4071 96.3216 24.4954C96.3938 24.5757 96.4297 24.68 96.4297 24.8085C96.4297 24.961 96.3779 25.0814 96.2732 25.1697C96.1691 25.258 96.0008 25.3022 95.7676 25.3022H91.0248C90.8002 25.3022 90.6358 25.258 90.5311 25.1697C90.427 25.0814 90.3747 24.961 90.3747 24.8085C90.3747 24.6881 90.4105 24.5878 90.4828 24.5075C90.555 24.4192 90.6676 24.3469 90.8201 24.2907L91.2893 24.1703C91.4338 24.1141 91.5385 24.0299 91.6027 23.9174C91.675 23.8051 91.7108 23.6244 91.7108 23.3756V10.191C91.7108 9.99024 91.679 9.84573 91.6147 9.75743C91.5584 9.66914 91.4623 9.61298 91.3257 9.58892L90.6875 9.54073C90.5431 9.50056 90.439 9.44441 90.3747 9.37215C90.3104 9.2999 90.2786 9.20762 90.2786 9.0952C90.2786 8.96679 90.3184 8.86245 90.3986 8.78218C90.4788 8.7019 90.6233 8.62162 90.832 8.54135L93.0714 7.72255C93.3922 7.60216 93.6453 7.51785 93.8296 7.46971C94.0145 7.42153 94.1749 7.39746 94.3114 7.39746C94.5759 7.39746 94.7727 7.46971 94.9013 7.61422C95.0372 7.75065 95.1055 7.93527 95.1055 8.16807Z" fill="#0D0D0D"/>
<path d="M102.313 14.4413V23.3756C102.313 23.6244 102.345 23.809 102.409 23.9295C102.481 24.0419 102.589 24.1221 102.734 24.1703L103.192 24.2907C103.344 24.3389 103.456 24.4071 103.528 24.4954C103.601 24.5757 103.637 24.68 103.637 24.8085C103.637 24.961 103.585 25.0814 103.481 25.1697C103.376 25.258 103.208 25.3021 102.975 25.3021H98.2316C98.0069 25.3021 97.8426 25.258 97.7379 25.1697C97.6338 25.0814 97.5815 24.961 97.5815 24.8085C97.5815 24.688 97.6179 24.5877 97.6901 24.5075C97.7624 24.4192 97.8744 24.3469 98.0269 24.2907L98.4967 24.1703C98.6412 24.1141 98.7453 24.0298 98.8095 23.9174C98.8818 23.8051 98.9176 23.6244 98.9176 23.3756V16.4762C98.9176 16.2675 98.8858 16.119 98.8215 16.0307C98.7652 15.9424 98.669 15.8862 98.5325 15.8621L97.8949 15.8139C97.7504 15.7819 97.6458 15.7297 97.5815 15.6574C97.5172 15.5852 97.4854 15.4929 97.4854 15.3805C97.4854 15.2441 97.5212 15.1357 97.5934 15.0554C97.6742 14.9751 97.8227 14.8948 98.0394 14.8146L100.278 13.9958C100.591 13.8834 100.84 13.8032 101.024 13.755C101.217 13.7068 101.378 13.6827 101.506 13.6827C101.779 13.6827 101.979 13.755 102.108 13.8995C102.245 14.0359 102.313 14.2166 102.313 14.4413ZM100.35 11.8405C99.7082 11.8405 99.1906 11.676 98.7976 11.3468C98.4125 11.0097 98.2197 10.5722 98.2197 10.0344C98.2197 9.49657 98.4125 9.06708 98.7976 8.74604C99.1906 8.41691 99.7082 8.25232 100.35 8.25232C101.001 8.25232 101.518 8.41691 101.903 8.74604C102.297 9.06708 102.493 9.49657 102.493 10.0344C102.493 10.5722 102.297 11.0097 101.903 11.3468C101.518 11.676 101.001 11.8405 100.35 11.8405Z" fill="#0D0D0D"/>
<path d="M109.449 14.7063C108.895 14.7063 108.462 14.8467 108.148 15.1277C107.843 15.4006 107.691 15.7498 107.691 16.1752C107.691 16.4401 107.747 16.6809 107.859 16.8977C107.98 17.1063 108.205 17.299 108.534 17.4756C108.863 17.6522 109.344 17.8168 109.978 17.9693C111.214 18.2262 112.169 18.5473 112.843 18.9325C113.517 19.3179 113.987 19.7633 114.252 20.2691C114.517 20.7668 114.649 21.3247 114.649 21.9427C114.649 23.0585 114.256 23.9496 113.469 24.6158C112.683 25.274 111.539 25.6032 110.038 25.6032C109.509 25.6032 109.075 25.555 108.738 25.4587C108.401 25.3704 108.124 25.2821 107.908 25.1938C107.691 25.0975 107.498 25.0493 107.33 25.0493C107.161 25.0493 107.021 25.0975 106.908 25.1938C106.804 25.2821 106.704 25.3704 106.607 25.4587C106.511 25.555 106.383 25.6032 106.222 25.6032C106.078 25.6032 105.97 25.563 105.897 25.4827C105.825 25.4025 105.757 25.254 105.693 25.0373L104.898 22.617C104.81 22.3361 104.781 22.1073 104.814 21.9307C104.854 21.7541 104.962 21.6297 105.139 21.5575C105.324 21.4932 105.484 21.4973 105.62 21.5695C105.757 21.6337 105.885 21.7581 106.006 21.9427C106.367 22.5689 106.752 23.0706 107.161 23.4478C107.57 23.8171 108 24.086 108.449 24.2546C108.907 24.4232 109.372 24.5075 109.846 24.5075C110.536 24.5075 111.05 24.367 111.386 24.086C111.732 23.8051 111.904 23.4318 111.904 22.9662C111.904 22.6853 111.832 22.4324 111.688 22.2076C111.543 21.9749 111.274 21.7661 110.881 21.5815C110.488 21.3889 109.918 21.2083 109.172 21.0397C108.136 20.815 107.31 20.5259 106.692 20.1727C106.082 19.8115 105.64 19.3781 105.367 18.8723C105.103 18.3666 104.97 17.7806 104.97 17.1144C104.97 16.416 105.151 15.8059 105.512 15.2842C105.873 14.7624 106.375 14.357 107.017 14.0681C107.659 13.771 108.401 13.6226 109.244 13.6226C109.79 13.6226 110.227 13.6707 110.556 13.7671C110.885 13.8634 111.154 13.9637 111.363 14.0681C111.579 14.1644 111.776 14.2125 111.952 14.2125C112.145 14.2125 112.298 14.1644 112.41 14.0681C112.522 13.9637 112.63 13.8634 112.735 13.7671C112.839 13.6707 112.968 13.6226 113.12 13.6226C113.241 13.6226 113.341 13.6667 113.421 13.755C113.509 13.8353 113.574 13.9798 113.614 14.1885L114.204 16.4883C114.26 16.7853 114.272 17.018 114.24 17.1866C114.216 17.3552 114.112 17.4756 113.927 17.5479C113.75 17.6201 113.593 17.6121 113.457 17.5238C113.321 17.4355 113.184 17.2789 113.048 17.0542C112.55 16.2033 111.985 15.6012 111.351 15.248C110.724 14.8868 110.091 14.7063 109.449 14.7063Z" fill="#0D0D0D"/>
<path d="M116.582 15.0794L116.028 14.9109C115.836 14.8467 115.699 14.7744 115.619 14.6942C115.539 14.6059 115.498 14.5055 115.498 14.3932C115.498 14.2326 115.551 14.1122 115.655 14.0319C115.767 13.9436 115.916 13.8995 116.1 13.8995H116.835C117.027 13.8995 117.188 13.8634 117.316 13.7911C117.445 13.7189 117.577 13.5904 117.713 13.4058L119.026 11.5635C119.195 11.3548 119.355 11.2023 119.507 11.106C119.66 11.0097 119.812 10.9615 119.965 10.9615C120.133 10.9615 120.266 11.0137 120.362 11.1181C120.458 11.2224 120.506 11.3749 120.506 11.5756V21.8705C120.506 22.4324 120.615 22.8618 120.832 23.1589C121.056 23.4558 121.365 23.6044 121.759 23.6044C122.056 23.6044 122.284 23.5482 122.445 23.4358C122.613 23.3154 122.746 23.1789 122.842 23.0264C122.938 22.8739 123.031 22.7414 123.119 22.6291C123.215 22.5086 123.335 22.4445 123.48 22.4364C123.601 22.4364 123.693 22.4765 123.757 22.5568C123.829 22.6371 123.865 22.7695 123.865 22.9542C123.857 23.4117 123.705 23.8371 123.408 24.2305C123.119 24.6238 122.714 24.9449 122.192 25.1937C121.67 25.4346 121.076 25.555 120.41 25.555C119.383 25.555 118.576 25.2981 117.99 24.7843C117.412 24.2626 117.123 23.48 117.123 22.4364V15.7899C117.123 15.5812 117.08 15.4287 116.992 15.3323C116.911 15.228 116.775 15.1437 116.582 15.0794ZM119.17 15.0915V13.8995H123.155C123.339 13.8995 123.484 13.9396 123.588 14.0199C123.701 14.0921 123.757 14.2005 123.757 14.345C123.757 14.5537 123.652 14.7303 123.444 14.8748C123.235 15.0193 122.898 15.0915 122.433 15.0915H119.17Z" fill="#0D0D0D"/>
</g>
<defs>
<clipPath id="clip0_1_253">
<rect width="124" height="31.86" fill="white" transform="translate(0.503174 0.570312)"/>
</clipPath>
</defs>
</svg>
