<svg width="25" height="24" viewBox="0 0 25 24" fill="none" xmlns="http://www.w3.org/2000/svg">
<g clip-path="url(#clip0_1_231)">
<path d="M24.5703 12C24.5703 18.6274 19.1977 24 12.5703 24C5.94288 24 0.570312 18.6274 0.570312 12C0.570312 5.37257 5.94288 0 12.5703 0C19.1977 0 24.5703 5.37257 24.5703 12Z" fill="#00AA45"/>
<path fill-rule="evenodd" clip-rule="evenodd" d="M12.5703 23.1429C18.7243 23.1429 23.7132 18.154 23.7132 12C23.7132 5.84597 18.7243 0.857143 12.5703 0.857143C6.41628 0.857143 1.42746 5.84597 1.42746 12C1.42746 18.154 6.41628 23.1429 12.5703 23.1429ZM12.5703 24C19.1977 24 24.5703 18.6274 24.5703 12C24.5703 5.37257 19.1977 0 12.5703 0C5.94288 0 0.570312 5.37257 0.570312 12C0.570312 18.6274 5.94288 24 12.5703 24Z" fill="#219653"/>
<path fill-rule="evenodd" clip-rule="evenodd" d="M12.1747 5.14282H6.9989V19.7143H11.0209V16.6666H12.1747C15.4548 16.6666 18.1418 14.102 18.1418 10.9047C18.1418 7.70739 15.4548 5.14282 12.1747 5.14282ZM11.0209 12.7619V9.04758H12.1747C13.2644 9.04758 14.1198 9.89414 14.1198 10.9047C14.1198 11.9153 13.2644 12.7619 12.1747 12.7619H11.0209Z" fill="#24292E"/>
<path fill-rule="evenodd" clip-rule="evenodd" d="M8.28455 4.71423H13.0318C16.0906 4.71423 18.5703 7.10206 18.5703 10.0475C18.5703 12.9931 16.0906 15.3809 13.0318 15.3809H11.4494V18.4285H8.28455V4.71423ZM11.4494 12.3333H13.0318C14.3427 12.3333 15.4054 11.3099 15.4054 10.0475C15.4054 8.78519 14.3427 7.76185 13.0318 7.76185H11.4494V12.3333Z" fill="white"/>
<path fill-rule="evenodd" clip-rule="evenodd" d="M7.85608 4.28577H13.0319C16.312 4.28577 18.9989 6.85034 18.9989 10.0477C18.9989 13.245 16.312 15.8096 13.0319 15.8096H11.8781V18.8572H7.85608V4.28577ZM8.71322 5.14291V18.0001H11.0209V14.9524H13.0319C15.8694 14.9524 18.1418 12.7414 18.1418 10.0477C18.1418 7.35395 15.8694 5.14291 13.0319 5.14291H8.71322ZM11.0209 7.33338H13.0319C14.5641 7.33338 15.8341 8.53351 15.8341 10.0477C15.8341 11.5618 14.5641 12.762 13.0319 12.762H11.0209V7.33338ZM11.8781 8.19052V11.9048H13.0319C14.1215 11.9048 14.977 11.0582 14.977 10.0477C14.977 9.03708 14.1215 8.19052 13.0319 8.19052H11.8781Z" fill="#24292E"/>
</g>
<defs>
<clipPath id="clip0_1_231">
<rect width="24" height="24" fill="white" transform="translate(0.570312)"/>
</clipPath>
</defs>
</svg>
