<svg width="1440" height="88" viewBox="0 0 1440 88" fill="none" xmlns="http://www.w3.org/2000/svg">
<rect width="1440" height="88" fill="white"/>
<path d="M80 43H88.7739C90.7759 43 92.8501 42.8779 94.5542 41.8279C95.8862 41.0073 97.0073 39.886 97.8281 38.554C98.8779 36.8501 99 34.7759 99 32.7739V24H86C84.4087 24 82.8828 24.6321 81.7573 25.7573C80.6323 26.8826 80 28.4087 80 30V43Z" fill="#6D1600"/>
<path d="M120 44C120 55.0459 111.046 64 100 64C89.29 64 80.5469 55.5811 80.0239 45H88.7739C90.7759 45 92.8501 45.1221 94.5537 46.1721C95.7749 46.9238 96.8203 47.9294 97.6187 49.1206C98.417 50.3118 98.9497 51.6606 99.1812 53.0759L99.2432 53.459C99.2969 53.6169 99.3989 53.7539 99.5347 53.8511C99.6172 53.9099 99.7095 53.9521 99.8062 53.9763C99.8691 53.9922 99.9341 54.0002 100 54.0002C100.167 54.0002 100.33 53.948 100.465 53.8511C100.601 53.7539 100.703 53.6169 100.757 53.459L100.819 53.0759C101.157 51.0081 102.135 49.0986 103.617 47.6172C105.099 46.1355 107.008 45.1567 109.076 44.8191L109.459 44.7571C109.617 44.7031 109.754 44.6011 109.851 44.4653C109.948 44.3296 110 44.1667 110 44C110 43.8333 109.948 43.6704 109.851 43.5347C109.794 43.4553 109.724 43.3875 109.644 43.334C109.586 43.2961 109.524 43.2654 109.459 43.2429L109.076 43.1809C107.661 42.95 106.312 42.4172 105.121 41.6189C103.929 40.8206 102.924 39.7751 102.172 38.554C101.122 36.8501 101 34.7759 101 32.7739V24H114C115.591 24 117.117 24.6321 118.243 25.7573C119.368 26.8826 120 28.4087 120 30V44Z" fill="#6D1600"/>
<path d="M448.761 51V36.4545H453.676C454.817 36.4545 455.75 36.6605 456.474 37.0724C457.204 37.4796 457.743 38.0312 458.094 38.7273C458.444 39.4233 458.619 40.1998 458.619 41.0568C458.619 41.9138 458.444 42.6927 458.094 43.3935C457.748 44.0942 457.213 44.6529 456.489 45.0696C455.764 45.4815 454.836 45.6875 453.705 45.6875H450.182V44.125H453.648C454.429 44.125 455.056 43.9901 455.53 43.7202C456.003 43.4503 456.347 43.0857 456.56 42.6264C456.777 42.1624 456.886 41.6392 456.886 41.0568C456.886 40.4744 456.777 39.9536 456.56 39.4943C456.347 39.035 456.001 38.6752 455.523 38.4148C455.045 38.1496 454.41 38.017 453.619 38.017H450.523V51H448.761ZM461.229 51V40.0909H462.849V41.7386H462.962C463.161 41.1989 463.521 40.7609 464.042 40.4247C464.563 40.0885 465.15 39.9205 465.803 39.9205C465.926 39.9205 466.08 39.9228 466.265 39.9276C466.45 39.9323 466.589 39.9394 466.684 39.9489V41.6534C466.627 41.6392 466.497 41.6179 466.293 41.5895C466.094 41.5563 465.884 41.5398 465.661 41.5398C465.131 41.5398 464.657 41.651 464.241 41.8736C463.829 42.0914 463.502 42.3944 463.261 42.7827C463.024 43.1662 462.906 43.6042 462.906 44.0966V51H461.229ZM472.771 51.2273C471.786 51.2273 470.922 50.9929 470.178 50.5241C469.44 50.0554 468.862 49.3996 468.445 48.5568C468.033 47.714 467.827 46.7292 467.827 45.6023C467.827 44.4659 468.033 43.474 468.445 42.6264C468.862 41.7789 469.44 41.1207 470.178 40.652C470.922 40.1832 471.786 39.9489 472.771 39.9489C473.755 39.9489 474.617 40.1832 475.356 40.652C476.099 41.1207 476.677 41.7789 477.089 42.6264C477.505 43.474 477.714 44.4659 477.714 45.6023C477.714 46.7292 477.505 47.714 477.089 48.5568C476.677 49.3996 476.099 50.0554 475.356 50.5241C474.617 50.9929 473.755 51.2273 472.771 51.2273ZM472.771 49.7216C473.519 49.7216 474.134 49.5298 474.617 49.1463C475.1 48.7628 475.458 48.2585 475.69 47.6335C475.922 47.0085 476.038 46.3314 476.038 45.6023C476.038 44.8731 475.922 44.1937 475.69 43.5639C475.458 42.9342 475.1 42.4252 474.617 42.0369C474.134 41.6487 473.519 41.4545 472.771 41.4545C472.022 41.4545 471.407 41.6487 470.924 42.0369C470.441 42.4252 470.084 42.9342 469.852 43.5639C469.62 44.1937 469.504 44.8731 469.504 45.6023C469.504 46.3314 469.62 47.0085 469.852 47.6335C470.084 48.2585 470.441 48.7628 470.924 49.1463C471.407 49.5298 472.022 49.7216 472.771 49.7216ZM484.392 51.2273C483.483 51.2273 482.68 50.9976 481.984 50.5384C481.288 50.0743 480.743 49.4209 480.35 48.5781C479.958 47.7306 479.761 46.7292 479.761 45.5739C479.761 44.428 479.958 43.4337 480.35 42.5909C480.743 41.7481 481.29 41.0971 481.991 40.6378C482.692 40.1785 483.502 39.9489 484.42 39.9489C485.13 39.9489 485.691 40.0672 486.103 40.304C486.52 40.536 486.837 40.8011 487.055 41.0994C487.278 41.393 487.45 41.6345 487.574 41.8239H487.716V36.4545H489.392V51H487.772V49.3239H487.574C487.45 49.5227 487.275 49.7737 487.048 50.0767C486.821 50.375 486.496 50.6425 486.075 50.8793C485.654 51.1113 485.092 51.2273 484.392 51.2273ZM484.619 49.7216C485.291 49.7216 485.859 49.5464 486.324 49.196C486.788 48.8409 487.14 48.3509 487.382 47.7259C487.623 47.0961 487.744 46.3693 487.744 45.5455C487.744 44.7311 487.626 44.0185 487.389 43.4077C487.152 42.7921 486.802 42.3139 486.338 41.973C485.874 41.6274 485.301 41.4545 484.619 41.4545C483.909 41.4545 483.317 41.6368 482.843 42.0014C482.375 42.3613 482.022 42.8513 481.785 43.4716C481.553 44.0871 481.437 44.7784 481.437 45.5455C481.437 46.322 481.556 47.0275 481.792 47.6619C482.034 48.2917 482.389 48.7936 482.858 49.1676C483.331 49.5369 483.918 49.7216 484.619 49.7216ZM499.569 46.5398V40.0909H501.245V51H499.569V49.1534H499.456C499.2 49.7074 498.802 50.1785 498.262 50.5668C497.723 50.9503 497.041 51.142 496.217 51.142C495.535 51.142 494.929 50.9929 494.399 50.6946C493.868 50.3916 493.452 49.937 493.149 49.331C492.846 48.7202 492.694 47.9508 492.694 47.0227V40.0909H494.37V46.9091C494.37 47.7045 494.593 48.339 495.038 48.8125C495.488 49.286 496.061 49.5227 496.757 49.5227C497.173 49.5227 497.597 49.4162 498.028 49.2031C498.464 48.9901 498.828 48.6634 499.122 48.223C499.42 47.7827 499.569 47.2216 499.569 46.5398ZM508.747 51.2273C507.724 51.2273 506.844 50.9858 506.105 50.5028C505.366 50.0199 504.798 49.3546 504.401 48.5071C504.003 47.6596 503.804 46.6913 503.804 45.6023C503.804 44.4943 504.008 43.5166 504.415 42.669C504.827 41.8168 505.4 41.1515 506.134 40.6733C506.872 40.1903 507.734 39.9489 508.719 39.9489C509.486 39.9489 510.177 40.0909 510.793 40.375C511.408 40.6591 511.912 41.0568 512.305 41.5682C512.698 42.0795 512.942 42.6761 513.037 43.358H511.361C511.233 42.8608 510.949 42.4205 510.509 42.0369C510.073 41.6487 509.486 41.4545 508.747 41.4545C508.094 41.4545 507.521 41.625 507.028 41.9659C506.541 42.3021 506.16 42.7779 505.885 43.3935C505.615 44.0043 505.48 44.7216 505.48 45.5455C505.48 46.3883 505.613 47.1222 505.878 47.7472C506.148 48.3722 506.527 48.8575 507.014 49.2031C507.507 49.5488 508.084 49.7216 508.747 49.7216C509.183 49.7216 509.578 49.6458 509.933 49.4943C510.288 49.3428 510.589 49.125 510.835 48.8409C511.081 48.5568 511.257 48.2159 511.361 47.8182H513.037C512.942 48.4621 512.708 49.0421 512.334 49.5582C511.964 50.0696 511.474 50.4768 510.864 50.7798C510.258 51.0781 509.552 51.2273 508.747 51.2273ZM520.232 40.0909V41.5114H514.578V40.0909H520.232ZM516.226 37.4773H517.902V47.875C517.902 48.3485 517.971 48.7036 518.108 48.9403C518.25 49.1723 518.43 49.3286 518.648 49.4091C518.87 49.4848 519.105 49.5227 519.351 49.5227C519.536 49.5227 519.687 49.5133 519.805 49.4943C519.924 49.4706 520.018 49.4517 520.089 49.4375L520.43 50.9432C520.317 50.9858 520.158 51.0284 519.955 51.071C519.751 51.1184 519.493 51.142 519.18 51.142C518.707 51.142 518.243 51.0402 517.788 50.8366C517.339 50.633 516.964 50.3229 516.666 49.9062C516.373 49.4896 516.226 48.964 516.226 48.3295V37.4773ZM530.285 42.5341L528.779 42.9602C528.684 42.7093 528.545 42.4654 528.36 42.2287C528.18 41.9872 527.934 41.7884 527.621 41.6321C527.309 41.4759 526.909 41.3977 526.421 41.3977C525.754 41.3977 525.197 41.5516 524.752 41.8594C524.312 42.1624 524.092 42.5483 524.092 43.017C524.092 43.4337 524.243 43.7628 524.546 44.0043C524.849 44.2457 525.323 44.447 525.967 44.608L527.586 45.0057C528.561 45.2424 529.288 45.6046 529.766 46.0923C530.245 46.5753 530.484 47.1979 530.484 47.9602C530.484 48.5852 530.304 49.1439 529.944 49.6364C529.589 50.1288 529.092 50.517 528.452 50.8011C527.813 51.0852 527.07 51.2273 526.222 51.2273C525.11 51.2273 524.189 50.9858 523.46 50.5028C522.73 50.0199 522.269 49.3144 522.075 48.3864L523.665 47.9886C523.817 48.5758 524.103 49.0161 524.525 49.3097C524.951 49.6032 525.507 49.75 526.194 49.75C526.975 49.75 527.595 49.5843 528.055 49.2528C528.519 48.9167 528.751 48.5142 528.751 48.0455C528.751 47.6667 528.618 47.3494 528.353 47.0938C528.088 46.8333 527.681 46.6392 527.131 46.5114L525.313 46.0852C524.314 45.8485 523.58 45.4815 523.112 44.9844C522.647 44.4825 522.415 43.8551 522.415 43.1023C522.415 42.4867 522.588 41.9422 522.934 41.4688C523.284 40.9953 523.76 40.6236 524.362 40.3537C524.968 40.0838 525.654 39.9489 526.421 39.9489C527.501 39.9489 528.348 40.1856 528.964 40.6591C529.584 41.1326 530.024 41.7576 530.285 42.5341Z" fill="#282A3A"/>
<path d="M590.358 51H588.511L593.852 36.4545H595.67L601.011 51H599.165L594.818 38.7557H594.705L590.358 51ZM591.04 45.3182H598.483V46.8807H591.04V45.3182ZM603.277 51V36.4545H604.953V41.8239H605.095C605.218 41.6345 605.389 41.393 605.607 41.0994C605.829 40.8011 606.146 40.536 606.558 40.304C606.975 40.0672 607.538 39.9489 608.249 39.9489C609.167 39.9489 609.977 40.1785 610.678 40.6378C611.378 41.0971 611.925 41.7481 612.318 42.5909C612.711 43.4337 612.908 44.428 612.908 45.5739C612.908 46.7292 612.711 47.7306 612.318 48.5781C611.925 49.4209 611.381 50.0743 610.685 50.5384C609.989 50.9976 609.186 51.2273 608.277 51.2273C607.576 51.2273 607.015 51.1113 606.594 50.8793C606.172 50.6425 605.848 50.375 605.621 50.0767C605.393 49.7737 605.218 49.5227 605.095 49.3239H604.896V51H603.277ZM604.925 45.5455C604.925 46.3693 605.045 47.0961 605.287 47.7259C605.528 48.3509 605.881 48.8409 606.345 49.196C606.809 49.5464 607.377 49.7216 608.05 49.7216C608.75 49.7216 609.335 49.5369 609.804 49.1676C610.277 48.7936 610.633 48.2917 610.869 47.6619C611.111 47.0275 611.232 46.322 611.232 45.5455C611.232 44.7784 611.113 44.0871 610.876 43.4716C610.644 42.8513 610.292 42.3613 609.818 42.0014C609.349 41.6368 608.76 41.4545 608.05 41.4545C607.368 41.4545 606.795 41.6274 606.331 41.973C605.867 42.3139 605.517 42.7921 605.28 43.4077C605.043 44.0185 604.925 44.7311 604.925 45.5455ZM619.903 51.2273C618.919 51.2273 618.054 50.9929 617.311 50.5241C616.572 50.0554 615.995 49.3996 615.578 48.5568C615.166 47.714 614.96 46.7292 614.96 45.6023C614.96 44.4659 615.166 43.474 615.578 42.6264C615.995 41.7789 616.572 41.1207 617.311 40.652C618.054 40.1832 618.919 39.9489 619.903 39.9489C620.888 39.9489 621.75 40.1832 622.489 40.652C623.232 41.1207 623.81 41.7789 624.222 42.6264C624.638 43.474 624.847 44.4659 624.847 45.6023C624.847 46.7292 624.638 47.714 624.222 48.5568C623.81 49.3996 623.232 50.0554 622.489 50.5241C621.75 50.9929 620.888 51.2273 619.903 51.2273ZM619.903 49.7216C620.652 49.7216 621.267 49.5298 621.75 49.1463C622.233 48.7628 622.59 48.2585 622.822 47.6335C623.054 47.0085 623.17 46.3314 623.17 45.6023C623.17 44.8731 623.054 44.1937 622.822 43.5639C622.59 42.9342 622.233 42.4252 621.75 42.0369C621.267 41.6487 620.652 41.4545 619.903 41.4545C619.155 41.4545 618.54 41.6487 618.057 42.0369C617.574 42.4252 617.216 42.9342 616.984 43.5639C616.752 44.1937 616.636 44.8731 616.636 45.6023C616.636 46.3314 616.752 47.0085 616.984 47.6335C617.216 48.2585 617.574 48.7628 618.057 49.1463C618.54 49.5298 619.155 49.7216 619.903 49.7216ZM634.28 46.5398V40.0909H635.956V51H634.28V49.1534H634.167C633.911 49.7074 633.513 50.1785 632.973 50.5668C632.434 50.9503 631.752 51.142 630.928 51.142C630.246 51.142 629.64 50.9929 629.11 50.6946C628.579 50.3916 628.163 49.937 627.86 49.331C627.557 48.7202 627.405 47.9508 627.405 47.0227V40.0909H629.081V46.9091C629.081 47.7045 629.304 48.339 629.749 48.8125C630.199 49.286 630.772 49.5227 631.468 49.5227C631.884 49.5227 632.308 49.4162 632.739 49.2031C633.175 48.9901 633.539 48.6634 633.833 48.223C634.131 47.7827 634.28 47.2216 634.28 46.5398ZM643.771 40.0909V41.5114H638.117V40.0909H643.771ZM639.765 37.4773H641.441V47.875C641.441 48.3485 641.51 48.7036 641.647 48.9403C641.789 49.1723 641.969 49.3286 642.187 49.4091C642.409 49.4848 642.644 49.5227 642.89 49.5227C643.075 49.5227 643.226 49.5133 643.344 49.4943C643.463 49.4706 643.558 49.4517 643.629 49.4375L643.969 50.9432C643.856 50.9858 643.697 51.0284 643.494 51.071C643.29 51.1184 643.032 51.142 642.719 51.142C642.246 51.142 641.782 51.0402 641.327 50.8366C640.878 50.633 640.504 50.3229 640.205 49.9062C639.912 49.4896 639.765 48.964 639.765 48.3295V37.4773ZM658.792 46.5398V40.0909H660.468V51H658.792V49.1534H658.678C658.423 49.7074 658.025 50.1785 657.485 50.5668C656.945 50.9503 656.263 51.142 655.44 51.142C654.758 51.142 654.152 50.9929 653.621 50.6946C653.091 50.3916 652.674 49.937 652.371 49.331C652.068 48.7202 651.917 47.9508 651.917 47.0227V40.0909H653.593V46.9091C653.593 47.7045 653.816 48.339 654.261 48.8125C654.71 49.286 655.283 49.5227 655.979 49.5227C656.396 49.5227 656.82 49.4162 657.251 49.2031C657.686 48.9901 658.051 48.6634 658.344 48.223C658.643 47.7827 658.792 47.2216 658.792 46.5398ZM671.265 42.5341L669.76 42.9602C669.665 42.7093 669.525 42.4654 669.341 42.2287C669.161 41.9872 668.914 41.7884 668.602 41.6321C668.289 41.4759 667.889 41.3977 667.402 41.3977C666.734 41.3977 666.178 41.5516 665.733 41.8594C665.292 42.1624 665.072 42.5483 665.072 43.017C665.072 43.4337 665.224 43.7628 665.527 44.0043C665.83 44.2457 666.303 44.447 666.947 44.608L668.566 45.0057C669.542 45.2424 670.269 45.6046 670.747 46.0923C671.225 46.5753 671.464 47.1979 671.464 47.9602C671.464 48.5852 671.284 49.1439 670.924 49.6364C670.569 50.1288 670.072 50.517 669.433 50.8011C668.794 51.0852 668.05 51.2273 667.203 51.2273C666.09 51.2273 665.169 50.9858 664.44 50.5028C663.711 50.0199 663.249 49.3144 663.055 48.3864L664.646 47.9886C664.797 48.5758 665.084 49.0161 665.505 49.3097C665.931 49.6032 666.488 49.75 667.174 49.75C667.956 49.75 668.576 49.5843 669.035 49.2528C669.499 48.9167 669.731 48.5142 669.731 48.0455C669.731 47.6667 669.599 47.3494 669.333 47.0938C669.068 46.8333 668.661 46.6392 668.112 46.5114L666.294 46.0852C665.295 45.8485 664.561 45.4815 664.092 44.9844C663.628 44.4825 663.396 43.8551 663.396 43.1023C663.396 42.4867 663.569 41.9422 663.914 41.4688C664.265 40.9953 664.741 40.6236 665.342 40.3537C665.948 40.0838 666.635 39.9489 667.402 39.9489C668.481 39.9489 669.329 40.1856 669.944 40.6591C670.565 41.1326 671.005 41.7576 671.265 42.5341Z" fill="#282A3A"/>
<path d="M729.966 38.017V36.4545H740.875V38.017H736.301V51H734.54V38.017H729.966ZM746.358 51.2273C745.307 51.2273 744.4 50.9953 743.638 50.5312C742.88 50.0625 742.295 49.4091 741.884 48.571C741.476 47.7282 741.273 46.7481 741.273 45.6307C741.273 44.5133 741.476 43.5284 741.884 42.6761C742.295 41.8191 742.868 41.1515 743.602 40.6733C744.341 40.1903 745.203 39.9489 746.188 39.9489C746.756 39.9489 747.317 40.0436 747.871 40.233C748.425 40.4223 748.929 40.7301 749.384 41.1562C749.838 41.5777 750.2 42.1364 750.47 42.8324C750.74 43.5284 750.875 44.3854 750.875 45.4034V46.1136H742.466V44.6648H749.17C749.17 44.0492 749.047 43.5 748.801 43.017C748.56 42.5341 748.214 42.1529 747.764 41.8736C747.319 41.5942 746.794 41.4545 746.188 41.4545C745.52 41.4545 744.942 41.6203 744.455 41.9517C743.972 42.2784 743.6 42.7045 743.339 43.2301C743.079 43.7557 742.949 44.3191 742.949 44.9205V45.8864C742.949 46.7102 743.091 47.4086 743.375 47.9815C743.664 48.5497 744.064 48.983 744.575 49.2812C745.087 49.5748 745.681 49.7216 746.358 49.7216C746.798 49.7216 747.196 49.66 747.551 49.5369C747.911 49.4091 748.221 49.2197 748.482 48.9688C748.742 48.7131 748.943 48.3958 749.085 48.017L750.705 48.4716C750.534 49.0208 750.248 49.5038 749.845 49.9205C749.443 50.3324 748.946 50.6544 748.354 50.8864C747.762 51.1136 747.097 51.2273 746.358 51.2273ZM761.152 42.5341L759.646 42.9602C759.552 42.7093 759.412 42.4654 759.227 42.2287C759.047 41.9872 758.801 41.7884 758.489 41.6321C758.176 41.4759 757.776 41.3977 757.288 41.3977C756.621 41.3977 756.064 41.5516 755.619 41.8594C755.179 42.1624 754.959 42.5483 754.959 43.017C754.959 43.4337 755.11 43.7628 755.413 44.0043C755.716 44.2457 756.19 44.447 756.834 44.608L758.453 45.0057C759.429 45.2424 760.155 45.6046 760.634 46.0923C761.112 46.5753 761.351 47.1979 761.351 47.9602C761.351 48.5852 761.171 49.1439 760.811 49.6364C760.456 50.1288 759.959 50.517 759.32 50.8011C758.68 51.0852 757.937 51.2273 757.089 51.2273C755.977 51.2273 755.056 50.9858 754.327 50.5028C753.598 50.0199 753.136 49.3144 752.942 48.3864L754.533 47.9886C754.684 48.5758 754.971 49.0161 755.392 49.3097C755.818 49.6032 756.375 49.75 757.061 49.75C757.842 49.75 758.463 49.5843 758.922 49.2528C759.386 48.9167 759.618 48.5142 759.618 48.0455C759.618 47.6667 759.485 47.3494 759.22 47.0938C758.955 46.8333 758.548 46.6392 757.999 46.5114L756.18 46.0852C755.181 45.8485 754.447 45.4815 753.979 44.9844C753.515 44.4825 753.283 43.8551 753.283 43.1023C753.283 42.4867 753.455 41.9422 753.801 41.4688C754.152 40.9953 754.627 40.6236 755.229 40.3537C755.835 40.0838 756.521 39.9489 757.288 39.9489C758.368 39.9489 759.215 40.1856 759.831 40.6591C760.451 41.1326 760.892 41.7576 761.152 42.5341ZM768.618 40.0909V41.5114H762.965V40.0909H768.618ZM764.613 37.4773H766.289V47.875C766.289 48.3485 766.357 48.7036 766.495 48.9403C766.637 49.1723 766.817 49.3286 767.034 49.4091C767.257 49.4848 767.491 49.5227 767.738 49.5227C767.922 49.5227 768.074 49.5133 768.192 49.4943C768.31 49.4706 768.405 49.4517 768.476 49.4375L768.817 50.9432C768.703 50.9858 768.545 51.0284 768.341 51.071C768.138 51.1184 767.88 51.142 767.567 51.142C767.094 51.142 766.63 51.0402 766.175 50.8366C765.725 50.633 765.351 50.3229 765.053 49.9062C764.759 49.4896 764.613 48.964 764.613 48.3295V37.4773ZM771.14 51V40.0909H772.816V51H771.14ZM771.992 38.2727C771.665 38.2727 771.383 38.1615 771.147 37.9389C770.915 37.7164 770.799 37.4489 770.799 37.1364C770.799 36.8239 770.915 36.5563 771.147 36.3338C771.383 36.1113 771.665 36 771.992 36C772.319 36 772.598 36.1113 772.83 36.3338C773.067 36.5563 773.185 36.8239 773.185 37.1364C773.185 37.4489 773.067 37.7164 772.83 37.9389C772.598 38.1615 772.319 38.2727 771.992 38.2727ZM775.886 51V40.0909H777.505V41.7955H777.647C777.874 41.2131 778.241 40.7609 778.748 40.4389C779.254 40.1122 779.863 39.9489 780.573 39.9489C781.293 39.9489 781.892 40.1122 782.37 40.4389C782.853 40.7609 783.229 41.2131 783.499 41.7955H783.613C783.892 41.232 784.311 40.7846 784.87 40.4531C785.429 40.117 786.099 39.9489 786.88 39.9489C787.855 39.9489 788.653 40.2543 789.273 40.8651C789.894 41.4711 790.204 42.4157 790.204 43.6989V51H788.528V43.6989C788.528 42.8939 788.308 42.3187 787.867 41.973C787.427 41.6274 786.908 41.4545 786.312 41.4545C785.545 41.4545 784.951 41.6866 784.529 42.1506C784.108 42.6098 783.897 43.1922 783.897 43.8977V51H782.192V43.5284C782.192 42.9081 781.991 42.4086 781.589 42.0298C781.186 41.6463 780.668 41.4545 780.033 41.4545C779.598 41.4545 779.191 41.5705 778.812 41.8026C778.438 42.0346 778.135 42.3565 777.903 42.7685C777.675 43.1757 777.562 43.6468 777.562 44.1818V51H775.886ZM797.7 51.2273C796.715 51.2273 795.851 50.9929 795.108 50.5241C794.369 50.0554 793.792 49.3996 793.375 48.5568C792.963 47.714 792.757 46.7292 792.757 45.6023C792.757 44.4659 792.963 43.474 793.375 42.6264C793.792 41.7789 794.369 41.1207 795.108 40.652C795.851 40.1832 796.715 39.9489 797.7 39.9489C798.685 39.9489 799.547 40.1832 800.286 40.652C801.029 41.1207 801.607 41.7789 802.018 42.6264C802.435 43.474 802.643 44.4659 802.643 45.6023C802.643 46.7292 802.435 47.714 802.018 48.5568C801.607 49.3996 801.029 50.0554 800.286 50.5241C799.547 50.9929 798.685 51.2273 797.7 51.2273ZM797.7 49.7216C798.448 49.7216 799.064 49.5298 799.547 49.1463C800.03 48.7628 800.387 48.2585 800.619 47.6335C800.851 47.0085 800.967 46.3314 800.967 45.6023C800.967 44.8731 800.851 44.1937 800.619 43.5639C800.387 42.9342 800.03 42.4252 799.547 42.0369C799.064 41.6487 798.448 41.4545 797.7 41.4545C796.952 41.4545 796.337 41.6487 795.854 42.0369C795.371 42.4252 795.013 42.9342 794.781 43.5639C794.549 44.1937 794.433 44.8731 794.433 45.6023C794.433 46.3314 794.549 47.0085 794.781 47.6335C795.013 48.2585 795.371 48.7628 795.854 49.1463C796.337 49.5298 796.952 49.7216 797.7 49.7216ZM806.878 44.4375V51H805.202V40.0909H806.821V41.7955H806.963C807.219 41.2415 807.607 40.7964 808.128 40.4602C808.649 40.1193 809.321 39.9489 810.145 39.9489C810.884 39.9489 811.53 40.1004 812.084 40.4034C812.638 40.7017 813.069 41.1562 813.377 41.767C813.685 42.3731 813.838 43.1402 813.838 44.0682V51H812.162V44.1818C812.162 43.3248 811.94 42.6572 811.495 42.179C811.05 41.696 810.439 41.4545 809.662 41.4545C809.127 41.4545 808.649 41.5705 808.228 41.8026C807.811 42.0346 807.482 42.3731 807.24 42.8182C806.999 43.2633 806.878 43.803 806.878 44.4375ZM816.901 51V40.0909H818.577V51H816.901ZM817.754 38.2727C817.427 38.2727 817.145 38.1615 816.908 37.9389C816.676 37.7164 816.56 37.4489 816.56 37.1364C816.56 36.8239 816.676 36.5563 816.908 36.3338C817.145 36.1113 817.427 36 817.754 36C818.08 36 818.36 36.1113 818.592 36.3338C818.828 36.5563 818.947 36.8239 818.947 37.1364C818.947 37.4489 818.828 37.7164 818.592 37.9389C818.36 38.1615 818.08 38.2727 817.754 38.2727ZM824.858 51.2557C824.166 51.2557 823.539 51.1255 822.975 50.8651C822.412 50.5999 821.965 50.2188 821.633 49.7216C821.302 49.2197 821.136 48.6136 821.136 47.9034C821.136 47.2784 821.259 46.7718 821.505 46.3835C821.752 45.9905 822.081 45.6828 822.493 45.4602C822.904 45.2377 823.359 45.072 823.856 44.9631C824.358 44.8494 824.862 44.7595 825.369 44.6932C826.032 44.608 826.569 44.544 826.981 44.5014C827.398 44.4541 827.701 44.3759 827.89 44.267C828.084 44.1581 828.181 43.9687 828.181 43.6989V43.642C828.181 42.9413 827.99 42.3968 827.606 42.0085C827.227 41.6203 826.652 41.4261 825.88 41.4261C825.08 41.4261 824.453 41.6013 823.998 41.9517C823.544 42.3021 823.224 42.6761 823.039 43.0739L821.449 42.5057C821.733 41.8428 822.111 41.3267 822.585 40.9574C823.063 40.5833 823.584 40.3229 824.147 40.1761C824.716 40.0246 825.274 39.9489 825.824 39.9489C826.174 39.9489 826.576 39.9915 827.031 40.0767C827.49 40.1572 827.933 40.3253 828.359 40.581C828.79 40.8366 829.147 41.2225 829.431 41.7386C829.716 42.2547 829.858 42.946 829.858 43.8125V51H828.181V49.5227H828.096C827.983 49.7595 827.793 50.0128 827.528 50.2827C827.263 50.5526 826.91 50.7822 826.47 50.9716C826.029 51.161 825.492 51.2557 824.858 51.2557ZM825.113 49.75C825.776 49.75 826.335 49.6198 826.789 49.3594C827.249 49.099 827.594 48.7628 827.826 48.3509C828.063 47.9389 828.181 47.5057 828.181 47.0511V45.517C828.11 45.6023 827.954 45.6804 827.713 45.7514C827.476 45.8177 827.201 45.8769 826.889 45.929C826.581 45.9763 826.28 46.0189 825.987 46.0568C825.698 46.09 825.464 46.1184 825.284 46.142C824.848 46.1989 824.441 46.2912 824.062 46.419C823.688 46.5421 823.385 46.7292 823.153 46.9801C822.926 47.2263 822.812 47.5625 822.812 47.9886C822.812 48.571 823.028 49.0114 823.458 49.3097C823.894 49.6032 824.446 49.75 825.113 49.75ZM834.593 36.4545V51H832.917V36.4545H834.593Z" fill="#282A3A"/>
<path d="M906.466 41H904.705C904.6 40.4934 904.418 40.0483 904.158 39.6648C903.902 39.2812 903.589 38.9593 903.22 38.6989C902.856 38.4337 902.451 38.2348 902.006 38.1023C901.561 37.9697 901.097 37.9034 900.614 37.9034C899.733 37.9034 898.935 38.1259 898.22 38.571C897.51 39.0161 896.944 39.6719 896.523 40.5384C896.106 41.4048 895.898 42.4678 895.898 43.7273C895.898 44.9867 896.106 46.0497 896.523 46.9162C896.944 47.7827 897.51 48.4384 898.22 48.8835C898.935 49.3286 899.733 49.5511 900.614 49.5511C901.097 49.5511 901.561 49.4848 902.006 49.3523C902.451 49.2197 902.856 49.0232 903.22 48.7628C903.589 48.4976 903.902 48.1733 904.158 47.7898C904.418 47.4015 904.6 46.9564 904.705 46.4545H906.466C906.333 47.1979 906.092 47.8632 905.741 48.4503C905.391 49.0374 904.955 49.5369 904.435 49.9489C903.914 50.3561 903.329 50.6662 902.68 50.8793C902.036 51.0923 901.348 51.1989 900.614 51.1989C899.373 51.1989 898.27 50.8958 897.304 50.2898C896.338 49.6837 895.578 48.822 895.024 47.7045C894.47 46.5871 894.193 45.2614 894.193 43.7273C894.193 42.1932 894.47 40.8674 895.024 39.75C895.578 38.6326 896.338 37.7708 897.304 37.1648C898.27 36.5587 899.373 36.2557 900.614 36.2557C901.348 36.2557 902.036 36.3622 902.68 36.5753C903.329 36.7884 903.914 37.1009 904.435 37.5128C904.955 37.92 905.391 38.4171 905.741 39.0043C906.092 39.5866 906.333 40.2519 906.466 41ZM913.517 51.2273C912.532 51.2273 911.668 50.9929 910.924 50.5241C910.186 50.0554 909.608 49.3996 909.191 48.5568C908.779 47.714 908.574 46.7292 908.574 45.6023C908.574 44.4659 908.779 43.474 909.191 42.6264C909.608 41.7789 910.186 41.1207 910.924 40.652C911.668 40.1832 912.532 39.9489 913.517 39.9489C914.502 39.9489 915.363 40.1832 916.102 40.652C916.845 41.1207 917.423 41.7789 917.835 42.6264C918.252 43.474 918.46 44.4659 918.46 45.6023C918.46 46.7292 918.252 47.714 917.835 48.5568C917.423 49.3996 916.845 50.0554 916.102 50.5241C915.363 50.9929 914.502 51.2273 913.517 51.2273ZM913.517 49.7216C914.265 49.7216 914.88 49.5298 915.363 49.1463C915.846 48.7628 916.204 48.2585 916.436 47.6335C916.668 47.0085 916.784 46.3314 916.784 45.6023C916.784 44.8731 916.668 44.1937 916.436 43.5639C916.204 42.9342 915.846 42.4252 915.363 42.0369C914.88 41.6487 914.265 41.4545 913.517 41.4545C912.769 41.4545 912.153 41.6487 911.67 42.0369C911.187 42.4252 910.83 42.9342 910.598 43.5639C910.366 44.1937 910.25 44.8731 910.25 45.6023C910.25 46.3314 910.366 47.0085 910.598 47.6335C910.83 48.2585 911.187 48.7628 911.67 49.1463C912.153 49.5298 912.769 49.7216 913.517 49.7216ZM922.695 44.4375V51H921.018V40.0909H922.638V41.7955H922.78C923.036 41.2415 923.424 40.7964 923.945 40.4602C924.465 40.1193 925.138 39.9489 925.962 39.9489C926.7 39.9489 927.347 40.1004 927.901 40.4034C928.455 40.7017 928.885 41.1562 929.193 41.767C929.501 42.3731 929.655 43.1402 929.655 44.0682V51H927.979V44.1818C927.979 43.3248 927.756 42.6572 927.311 42.179C926.866 41.696 926.255 41.4545 925.479 41.4545C924.944 41.4545 924.465 41.5705 924.044 41.8026C923.627 42.0346 923.298 42.3731 923.057 42.8182C922.815 43.2633 922.695 43.803 922.695 44.4375ZM937.462 40.0909V41.5114H931.809V40.0909H937.462ZM933.456 37.4773H935.132V47.875C935.132 48.3485 935.201 48.7036 935.338 48.9403C935.48 49.1723 935.66 49.3286 935.878 49.4091C936.101 49.4848 936.335 49.5227 936.581 49.5227C936.766 49.5227 936.917 49.5133 937.036 49.4943C937.154 49.4706 937.249 49.4517 937.32 49.4375L937.661 50.9432C937.547 50.9858 937.389 51.0284 937.185 51.071C936.981 51.1184 936.723 51.142 936.411 51.142C935.937 51.142 935.473 51.0402 935.019 50.8366C934.569 50.633 934.195 50.3229 933.897 49.9062C933.603 49.4896 933.456 48.964 933.456 48.3295V37.4773ZM943.194 51.2557C942.502 51.2557 941.875 51.1255 941.311 50.8651C940.748 50.5999 940.301 50.2188 939.969 49.7216C939.638 49.2197 939.472 48.6136 939.472 47.9034C939.472 47.2784 939.595 46.7718 939.841 46.3835C940.087 45.9905 940.417 45.6828 940.828 45.4602C941.24 45.2377 941.695 45.072 942.192 44.9631C942.694 44.8494 943.198 44.7595 943.705 44.6932C944.368 44.608 944.905 44.544 945.317 44.5014C945.734 44.4541 946.037 44.3759 946.226 44.267C946.42 44.1581 946.517 43.9687 946.517 43.6989V43.642C946.517 42.9413 946.326 42.3968 945.942 42.0085C945.563 41.6203 944.988 41.4261 944.216 41.4261C943.416 41.4261 942.789 41.6013 942.334 41.9517C941.88 42.3021 941.56 42.6761 941.375 43.0739L939.784 42.5057C940.069 41.8428 940.447 41.3267 940.921 40.9574C941.399 40.5833 941.92 40.3229 942.483 40.1761C943.051 40.0246 943.61 39.9489 944.159 39.9489C944.51 39.9489 944.912 39.9915 945.367 40.0767C945.826 40.1572 946.269 40.3253 946.695 40.581C947.126 40.8366 947.483 41.2225 947.767 41.7386C948.051 42.2547 948.194 42.946 948.194 43.8125V51H946.517V49.5227H946.432C946.319 49.7595 946.129 50.0128 945.864 50.2827C945.599 50.5526 945.246 50.7822 944.806 50.9716C944.365 51.161 943.828 51.2557 943.194 51.2557ZM943.449 49.75C944.112 49.75 944.671 49.6198 945.125 49.3594C945.585 49.099 945.93 48.7628 946.162 48.3509C946.399 47.9389 946.517 47.5057 946.517 47.0511V45.517C946.446 45.6023 946.29 45.6804 946.049 45.7514C945.812 45.8177 945.537 45.8769 945.225 45.929C944.917 45.9763 944.616 46.0189 944.323 46.0568C944.034 46.09 943.8 46.1184 943.62 46.142C943.184 46.1989 942.777 46.2912 942.398 46.419C942.024 46.5421 941.721 46.7292 941.489 46.9801C941.262 47.2263 941.148 47.5625 941.148 47.9886C941.148 48.571 941.364 49.0114 941.794 49.3097C942.23 49.6032 942.782 49.75 943.449 49.75ZM955.685 51.2273C954.662 51.2273 953.781 50.9858 953.043 50.5028C952.304 50.0199 951.736 49.3546 951.338 48.5071C950.94 47.6596 950.741 46.6913 950.741 45.6023C950.741 44.4943 950.945 43.5166 951.352 42.669C951.764 41.8168 952.337 41.1515 953.071 40.6733C953.81 40.1903 954.671 39.9489 955.656 39.9489C956.423 39.9489 957.115 40.0909 957.73 40.375C958.346 40.6591 958.85 41.0568 959.243 41.5682C959.636 42.0795 959.88 42.6761 959.974 43.358H958.298C958.17 42.8608 957.886 42.4205 957.446 42.0369C957.01 41.6487 956.423 41.4545 955.685 41.4545C955.031 41.4545 954.458 41.625 953.966 41.9659C953.478 42.3021 953.097 42.7779 952.822 43.3935C952.553 44.0043 952.418 44.7216 952.418 45.5455C952.418 46.3883 952.55 47.1222 952.815 47.7472C953.085 48.3722 953.464 48.8575 953.952 49.2031C954.444 49.5488 955.022 49.7216 955.685 49.7216C956.12 49.7216 956.516 49.6458 956.871 49.4943C957.226 49.3428 957.527 49.125 957.773 48.8409C958.019 48.5568 958.194 48.2159 958.298 47.8182H959.974C959.88 48.4621 959.645 49.0421 959.271 49.5582C958.902 50.0696 958.412 50.4768 957.801 50.7798C957.195 51.0781 956.49 51.2273 955.685 51.2273ZM967.169 40.0909V41.5114H961.516V40.0909H967.169ZM963.163 37.4773H964.839V47.875C964.839 48.3485 964.908 48.7036 965.045 48.9403C965.188 49.1723 965.367 49.3286 965.585 49.4091C965.808 49.4848 966.042 49.5227 966.288 49.5227C966.473 49.5227 966.625 49.5133 966.743 49.4943C966.861 49.4706 966.956 49.4517 967.027 49.4375L967.368 50.9432C967.254 50.9858 967.096 51.0284 966.892 51.071C966.688 51.1184 966.43 51.142 966.118 51.142C965.644 51.142 965.18 51.0402 964.726 50.8366C964.276 50.633 963.902 50.3229 963.604 49.9062C963.31 49.4896 963.163 48.964 963.163 48.3295V37.4773Z" fill="#282A3A"/>
<g clip-path="url(#clip0_3202_10)">
<path d="M1306.5 50C1310.64 50 1314 46.6421 1314 42.5C1314 38.3579 1310.64 35 1306.5 35C1302.36 35 1299 38.3579 1299 42.5C1299 46.6421 1302.36 50 1306.5 50Z" stroke="#282A3A" stroke-linecap="round" stroke-linejoin="round"/>
<path d="M1311.8 47.8035L1317 53" stroke="#282A3A" stroke-linecap="round" stroke-linejoin="round"/>
</g>
<g clip-path="url(#clip1_3202_10)">
<path d="M1356.25 36.5H1339.75C1339.34 36.5 1339 36.8358 1339 37.25V50.75C1339 51.1642 1339.34 51.5 1339.75 51.5H1356.25C1356.66 51.5 1357 51.1642 1357 50.75V37.25C1357 36.8358 1356.66 36.5 1356.25 36.5Z" stroke="#282A3A" stroke-linecap="round" stroke-linejoin="round"/>
<path d="M1339 39.5H1357" stroke="#282A3A" stroke-linecap="round" stroke-linejoin="round"/>
<path d="M1351.75 42.5C1351.75 43.4946 1351.35 44.4484 1350.65 45.1517C1349.95 45.8549 1348.99 46.25 1348 46.25C1347.01 46.25 1346.05 45.8549 1345.35 45.1517C1344.65 44.4484 1344.25 43.4946 1344.25 42.5" stroke="#282A3A" stroke-linecap="round" stroke-linejoin="round"/>
</g>
<defs>
<clipPath id="clip0_3202_10">
<rect width="24" height="24" fill="white" transform="translate(1296 32)"/>
</clipPath>
<clipPath id="clip1_3202_10">
<rect width="24" height="24" fill="white" transform="translate(1336 32)"/>
</clipPath>
</defs>
</svg>
