<svg width="15" height="14" viewBox="0 0 15 14" fill="none" xmlns="http://www.w3.org/2000/svg">
<path d="M14.3351 13.6094C14.2885 13.6901 14.2214 13.7572 14.1406 13.8038C14.0599 13.8505 13.9682 13.875 13.8749 13.875H1.12494C1.03174 13.8749 0.940194 13.8503 0.85951 13.8036C0.778825 13.7569 0.711839 13.6899 0.665276 13.6091C0.618714 13.5284 0.594214 13.4368 0.594238 13.3436C0.594262 13.2504 0.618808 13.1588 0.665412 13.0781C1.67678 11.3296 3.23533 10.0759 5.0542 9.48154C4.15451 8.94594 3.4555 8.12982 3.06453 7.15851C2.67356 6.1872 2.61223 5.1144 2.88998 4.10486C3.16773 3.09532 3.76919 2.20487 4.60199 1.57025C5.4348 0.935622 6.4529 0.591919 7.49994 0.591919C8.54699 0.591919 9.56509 0.935622 10.3979 1.57025C11.2307 2.20487 11.8322 3.09532 12.1099 4.10486C12.3877 5.1144 12.3263 6.1872 11.9354 7.15851C11.5444 8.12982 10.8454 8.94594 9.94569 9.48154C11.7646 10.0759 13.3231 11.3296 14.3345 13.0781C14.3812 13.1588 14.4059 13.2504 14.406 13.3436C14.4061 13.4369 14.3817 13.5285 14.3351 13.6094Z" fill="#282A3A"/>
</svg>
