<svg width="19" height="19" viewBox="0 0 19 19" fill="none" xmlns="http://www.w3.org/2000/svg">
<path d="M8.71594 0.927052C9.01529 0.00574112 10.3187 0.00573993 10.618 0.927051L12.1366 5.60081C12.2705 6.01284 12.6545 6.2918 13.0877 6.2918H18.002C18.9707 6.2918 19.3735 7.53141 18.5898 8.10081L14.614 10.9894C14.2635 11.244 14.1169 11.6954 14.2508 12.1074L15.7694 16.7812C16.0687 17.7025 15.0142 18.4686 14.2305 17.8992L10.2548 15.0106C9.90429 14.756 9.42969 14.756 9.07921 15.0106L5.10347 17.8992C4.31976 18.4686 3.26527 17.7025 3.56463 16.7812L5.08322 12.1074C5.2171 11.6954 5.07044 11.244 4.71995 10.9894L0.744213 8.10081C-0.0395005 7.53141 0.363275 6.2918 1.332 6.2918H6.24628C6.67951 6.2918 7.06346 6.01284 7.19734 5.60081L8.71594 0.927052Z" fill="#FFB31F"/>
</svg>
